G75*
%MOIN*%
%OFA0B0*%
%FSLAX25Y25*%
%IPPOS*%
%LPD*%
%AMOC8*
5,1,8,0,0,1.08239X$1,22.5*
%
%ADD10C,0.00000*%
%ADD11C,0.00300*%
%ADD12C,0.00600*%
%ADD13C,0.00500*%
%ADD14C,0.00400*%
D10*
X0001610Y0001000D02*
X0190586Y0001000D01*
X0190586Y0073835D01*
X0001610Y0073835D01*
X0001610Y0001000D01*
D11*
X0014555Y0004709D02*
X0015162Y0004103D01*
X0016375Y0004103D01*
X0016982Y0004709D01*
X0016982Y0005316D01*
X0016375Y0005923D01*
X0015768Y0005923D01*
X0016375Y0005923D02*
X0016982Y0006529D01*
X0016982Y0007136D01*
X0016375Y0007743D01*
X0015162Y0007743D01*
X0014555Y0007136D01*
X0018180Y0007743D02*
X0018180Y0005316D01*
X0019394Y0004103D01*
X0020607Y0005316D01*
X0020607Y0007743D01*
X0021805Y0007136D02*
X0022412Y0007743D01*
X0023625Y0007743D01*
X0024232Y0007136D01*
X0024232Y0006529D01*
X0023625Y0005923D01*
X0024232Y0005316D01*
X0024232Y0004709D01*
X0023625Y0004103D01*
X0022412Y0004103D01*
X0021805Y0004709D01*
X0023019Y0005923D02*
X0023625Y0005923D01*
X0025382Y0007136D02*
X0025382Y0004709D01*
X0025989Y0004103D01*
X0027202Y0004103D01*
X0027809Y0004709D01*
X0027809Y0005923D01*
X0026595Y0005923D01*
X0025382Y0007136D02*
X0025989Y0007743D01*
X0027202Y0007743D01*
X0027809Y0007136D01*
X0029007Y0007743D02*
X0031434Y0004103D01*
X0031434Y0007743D01*
X0032632Y0007743D02*
X0034452Y0007743D01*
X0035059Y0007136D01*
X0035059Y0004709D01*
X0034452Y0004103D01*
X0032632Y0004103D01*
X0032632Y0007743D01*
X0029007Y0007743D02*
X0029007Y0004103D01*
X0038177Y0004103D02*
X0040604Y0006529D01*
X0040604Y0007136D01*
X0039997Y0007743D01*
X0038784Y0007743D01*
X0038177Y0007136D01*
X0041802Y0007136D02*
X0041802Y0006529D01*
X0042409Y0005923D01*
X0043622Y0005923D01*
X0044229Y0005316D01*
X0044229Y0004709D01*
X0043622Y0004103D01*
X0042409Y0004103D01*
X0041802Y0004709D01*
X0041802Y0005316D01*
X0042409Y0005923D01*
X0043622Y0005923D02*
X0044229Y0006529D01*
X0044229Y0007136D01*
X0043622Y0007743D01*
X0042409Y0007743D01*
X0041802Y0007136D01*
X0040604Y0004103D02*
X0038177Y0004103D01*
X0048020Y0004103D02*
X0050446Y0006529D01*
X0050446Y0007136D01*
X0049840Y0007743D01*
X0048626Y0007743D01*
X0048020Y0007136D01*
X0051645Y0007743D02*
X0054072Y0007743D01*
X0054072Y0007136D01*
X0051645Y0004709D01*
X0051645Y0004103D01*
X0050446Y0004103D02*
X0048020Y0004103D01*
X0057862Y0004103D02*
X0060289Y0006529D01*
X0060289Y0007136D01*
X0059682Y0007743D01*
X0058469Y0007743D01*
X0057862Y0007136D01*
X0061487Y0005923D02*
X0063307Y0005923D01*
X0063914Y0005316D01*
X0063914Y0004709D01*
X0063307Y0004103D01*
X0062094Y0004103D01*
X0061487Y0004709D01*
X0061487Y0005923D01*
X0062701Y0007136D01*
X0063914Y0007743D01*
X0067705Y0007136D02*
X0068311Y0007743D01*
X0069525Y0007743D01*
X0070131Y0007136D01*
X0070131Y0006529D01*
X0067705Y0004103D01*
X0070131Y0004103D01*
X0071330Y0004103D02*
X0073757Y0004103D01*
X0072543Y0004103D02*
X0072543Y0007743D01*
X0071330Y0006529D01*
X0077547Y0007136D02*
X0078154Y0007743D01*
X0079367Y0007743D01*
X0079974Y0007136D01*
X0079974Y0006529D01*
X0077547Y0004103D01*
X0079974Y0004103D01*
X0081172Y0004709D02*
X0083599Y0007136D01*
X0083599Y0004709D01*
X0082992Y0004103D01*
X0081779Y0004103D01*
X0081172Y0004709D01*
X0081172Y0007136D01*
X0081779Y0007743D01*
X0082992Y0007743D01*
X0083599Y0007136D01*
X0087390Y0006529D02*
X0088603Y0007743D01*
X0088603Y0004103D01*
X0087390Y0004103D02*
X0089817Y0004103D01*
X0091015Y0004709D02*
X0091622Y0004103D01*
X0092835Y0004103D01*
X0093442Y0004709D01*
X0093442Y0007136D01*
X0092835Y0007743D01*
X0091622Y0007743D01*
X0091015Y0007136D01*
X0091015Y0006529D01*
X0091622Y0005923D01*
X0093442Y0005923D01*
X0099201Y0004709D02*
X0099201Y0004103D01*
X0099201Y0004709D02*
X0101628Y0007136D01*
X0101628Y0007743D01*
X0099201Y0007743D01*
X0109043Y0005923D02*
X0109043Y0004709D01*
X0109650Y0004103D01*
X0110863Y0004103D01*
X0111470Y0004709D01*
X0111470Y0005316D01*
X0110863Y0005923D01*
X0109043Y0005923D01*
X0110257Y0007136D01*
X0111470Y0007743D01*
X0118886Y0007743D02*
X0118886Y0005923D01*
X0120099Y0006529D01*
X0120706Y0006529D01*
X0121313Y0005923D01*
X0121313Y0004709D01*
X0120706Y0004103D01*
X0119493Y0004103D01*
X0118886Y0004709D01*
X0118886Y0007743D02*
X0121313Y0007743D01*
X0128728Y0005923D02*
X0131155Y0005923D01*
X0130548Y0007743D02*
X0128728Y0005923D01*
X0130548Y0004103D02*
X0130548Y0007743D01*
X0139555Y0007136D02*
X0140162Y0007743D01*
X0141375Y0007743D01*
X0141982Y0007136D01*
X0141982Y0006529D01*
X0141375Y0005923D01*
X0141982Y0005316D01*
X0141982Y0004709D01*
X0141375Y0004103D01*
X0140162Y0004103D01*
X0139555Y0004709D01*
X0140768Y0005923D02*
X0141375Y0005923D01*
X0149398Y0007136D02*
X0150004Y0007743D01*
X0151218Y0007743D01*
X0151824Y0007136D01*
X0151824Y0006529D01*
X0149398Y0004103D01*
X0151824Y0004103D01*
X0159240Y0004103D02*
X0161667Y0004103D01*
X0160454Y0004103D02*
X0160454Y0007743D01*
X0159240Y0006529D01*
X0169083Y0007136D02*
X0169083Y0004709D01*
X0171509Y0007136D01*
X0171509Y0004709D01*
X0170903Y0004103D01*
X0169689Y0004103D01*
X0169083Y0004709D01*
X0169083Y0007136D02*
X0169689Y0007743D01*
X0170903Y0007743D01*
X0171509Y0007136D01*
X0095660Y0045815D02*
X0093233Y0045815D01*
X0092035Y0045815D02*
X0090821Y0047029D01*
X0091428Y0047029D02*
X0089608Y0047029D01*
X0089608Y0045815D02*
X0089608Y0049455D01*
X0091428Y0049455D01*
X0092035Y0048849D01*
X0092035Y0047635D01*
X0091428Y0047029D01*
X0093233Y0048242D02*
X0094446Y0049455D01*
X0094446Y0045815D01*
X0087196Y0045815D02*
X0087196Y0049455D01*
X0085983Y0049455D02*
X0088410Y0049455D01*
X0061405Y0066111D02*
X0061405Y0067931D01*
X0062618Y0069144D01*
X0062618Y0069751D01*
X0061405Y0067931D02*
X0060191Y0069144D01*
X0060191Y0069751D01*
X0058993Y0069751D02*
X0056566Y0069751D01*
X0056566Y0066111D01*
X0058993Y0066111D01*
X0057779Y0067931D02*
X0056566Y0067931D01*
X0055368Y0069751D02*
X0052941Y0067324D01*
X0053548Y0067931D02*
X0055368Y0066111D01*
X0052941Y0066111D02*
X0052941Y0069751D01*
X0045886Y0069144D02*
X0045886Y0066717D01*
X0045279Y0066111D01*
X0043459Y0066111D01*
X0043459Y0069751D01*
X0045279Y0069751D01*
X0045886Y0069144D01*
X0042261Y0069751D02*
X0042261Y0066111D01*
X0039834Y0069751D01*
X0039834Y0066111D01*
X0038635Y0066717D02*
X0038635Y0067931D01*
X0037422Y0067931D01*
X0036209Y0069144D02*
X0036209Y0066717D01*
X0036815Y0066111D01*
X0038029Y0066111D01*
X0038635Y0066717D01*
X0038635Y0069144D02*
X0038029Y0069751D01*
X0036815Y0069751D01*
X0036209Y0069144D01*
X0030450Y0069751D02*
X0028023Y0069751D01*
X0028023Y0066111D01*
X0026824Y0066111D02*
X0026824Y0068537D01*
X0025611Y0069751D01*
X0024398Y0068537D01*
X0024398Y0066111D01*
X0024398Y0067931D02*
X0026824Y0067931D01*
X0028023Y0067931D02*
X0029236Y0067931D01*
X0007908Y0040144D02*
X0006694Y0040144D01*
X0006087Y0039538D01*
X0004889Y0039538D02*
X0004282Y0040144D01*
X0003069Y0040144D01*
X0002462Y0039538D01*
X0002462Y0037111D01*
X0003069Y0036504D01*
X0004282Y0036504D01*
X0004889Y0037111D01*
X0006087Y0036504D02*
X0008514Y0038931D01*
X0008514Y0039538D01*
X0007908Y0040144D01*
X0008514Y0036504D02*
X0006087Y0036504D01*
X0010789Y0029318D02*
X0012609Y0029318D01*
X0013216Y0028711D01*
X0013216Y0027498D01*
X0012609Y0026891D01*
X0010789Y0026891D01*
X0010789Y0025678D02*
X0010789Y0029318D01*
X0014414Y0028104D02*
X0015628Y0029318D01*
X0015628Y0025678D01*
X0016841Y0025678D02*
X0014414Y0025678D01*
X0013216Y0025678D02*
X0012002Y0026891D01*
X0034693Y0027048D02*
X0036513Y0027048D01*
X0037120Y0027655D01*
X0037120Y0028868D01*
X0036513Y0029475D01*
X0034693Y0029475D01*
X0034693Y0025835D01*
X0035906Y0027048D02*
X0037120Y0025835D01*
X0038318Y0025835D02*
X0040745Y0028262D01*
X0040745Y0028868D01*
X0040138Y0029475D01*
X0038925Y0029475D01*
X0038318Y0028868D01*
X0045520Y0029475D02*
X0047340Y0029475D01*
X0047946Y0028868D01*
X0047946Y0027655D01*
X0047340Y0027048D01*
X0045520Y0027048D01*
X0046733Y0027048D02*
X0047946Y0025835D01*
X0049145Y0026442D02*
X0049752Y0025835D01*
X0050965Y0025835D01*
X0051572Y0026442D01*
X0051572Y0027048D01*
X0050965Y0027655D01*
X0050358Y0027655D01*
X0050965Y0027655D02*
X0051572Y0028262D01*
X0051572Y0028868D01*
X0050965Y0029475D01*
X0049752Y0029475D01*
X0049145Y0028868D01*
X0045520Y0029475D02*
X0045520Y0025835D01*
X0040745Y0025835D02*
X0038318Y0025835D01*
X0061517Y0026284D02*
X0062124Y0025678D01*
X0063337Y0025678D01*
X0063944Y0026284D01*
X0065143Y0025678D02*
X0067569Y0025678D01*
X0066356Y0025678D02*
X0066356Y0029318D01*
X0065143Y0028104D01*
X0063944Y0028711D02*
X0063337Y0029318D01*
X0062124Y0029318D01*
X0061517Y0028711D01*
X0061517Y0026284D01*
X0060289Y0004103D02*
X0057862Y0004103D01*
X0117524Y0066111D02*
X0116917Y0066717D01*
X0117524Y0066111D02*
X0118737Y0066111D01*
X0119344Y0066717D01*
X0119344Y0067324D01*
X0118737Y0067931D01*
X0118131Y0067931D01*
X0118737Y0067931D02*
X0119344Y0068537D01*
X0119344Y0069144D01*
X0118737Y0069751D01*
X0117524Y0069751D01*
X0116917Y0069144D01*
X0120542Y0069751D02*
X0120542Y0067324D01*
X0121756Y0066111D01*
X0122969Y0067324D01*
X0122969Y0069751D01*
X0124168Y0069144D02*
X0124774Y0069751D01*
X0125988Y0069751D01*
X0126594Y0069144D01*
X0126594Y0068537D01*
X0125988Y0067931D01*
X0126594Y0067324D01*
X0126594Y0066717D01*
X0125988Y0066111D01*
X0124774Y0066111D01*
X0124168Y0066717D01*
X0125381Y0067931D02*
X0125988Y0067931D01*
X0127744Y0069144D02*
X0127744Y0066717D01*
X0128351Y0066111D01*
X0129564Y0066111D01*
X0130171Y0066717D01*
X0130171Y0067931D01*
X0128957Y0067931D01*
X0127744Y0069144D02*
X0128351Y0069751D01*
X0129564Y0069751D01*
X0130171Y0069144D01*
X0131369Y0069751D02*
X0133796Y0066111D01*
X0133796Y0069751D01*
X0134994Y0069751D02*
X0136814Y0069751D01*
X0137421Y0069144D01*
X0137421Y0066717D01*
X0136814Y0066111D01*
X0134994Y0066111D01*
X0134994Y0069751D01*
X0131369Y0069751D02*
X0131369Y0066111D01*
X0141524Y0069751D02*
X0143950Y0069751D01*
X0142737Y0069751D02*
X0142737Y0066111D01*
X0145149Y0066111D02*
X0147576Y0068537D01*
X0147576Y0066111D02*
X0145149Y0068537D01*
X0150382Y0067324D02*
X0152202Y0067324D01*
X0152809Y0067931D01*
X0152809Y0069144D01*
X0152202Y0069751D01*
X0150382Y0069751D01*
X0150382Y0066111D01*
X0151595Y0067324D02*
X0152809Y0066111D01*
X0154007Y0066111D02*
X0156434Y0068537D01*
X0158256Y0068537D02*
X0159469Y0069751D01*
X0159469Y0066111D01*
X0158256Y0066111D02*
X0160683Y0066111D01*
X0161881Y0066111D02*
X0161881Y0069751D01*
X0163701Y0069751D01*
X0164308Y0069144D01*
X0164308Y0067931D01*
X0163701Y0067324D01*
X0161881Y0067324D01*
X0165506Y0067324D02*
X0167326Y0067324D01*
X0167933Y0067931D01*
X0167933Y0069144D01*
X0167326Y0069751D01*
X0165506Y0069751D01*
X0165506Y0066111D01*
X0169131Y0066717D02*
X0169738Y0066111D01*
X0170951Y0066111D01*
X0171558Y0066717D01*
X0171558Y0067324D01*
X0170951Y0067931D01*
X0169738Y0067931D01*
X0169131Y0068537D01*
X0169131Y0069144D01*
X0169738Y0069751D01*
X0170951Y0069751D01*
X0171558Y0069144D01*
X0156434Y0066111D02*
X0154007Y0068537D01*
D12*
X0092759Y0043016D02*
X0089563Y0043016D01*
X0089563Y0040819D01*
X0089563Y0034016D02*
X0089563Y0031819D01*
X0092759Y0031819D01*
X0093283Y0019780D02*
X0088283Y0019780D01*
X0085783Y0017280D01*
X0083283Y0019780D01*
X0078283Y0019780D01*
X0075783Y0017280D01*
X0073283Y0019780D01*
X0068283Y0019780D01*
X0065783Y0017280D01*
X0063283Y0019780D01*
X0058283Y0019780D01*
X0055783Y0017280D01*
X0053283Y0019780D01*
X0048283Y0019780D01*
X0045783Y0017280D01*
X0043283Y0019780D01*
X0038283Y0019780D01*
X0035783Y0017280D01*
X0033283Y0019780D01*
X0028283Y0019780D01*
X0025783Y0017280D01*
X0023283Y0019780D01*
X0018283Y0019780D01*
X0015783Y0017280D01*
X0015783Y0012280D01*
X0018283Y0009780D01*
X0023283Y0009780D01*
X0025783Y0012280D01*
X0028283Y0009780D01*
X0033283Y0009780D01*
X0035783Y0012280D01*
X0038283Y0009780D01*
X0043283Y0009780D01*
X0045783Y0012280D01*
X0048283Y0009780D01*
X0053283Y0009780D01*
X0055783Y0012280D01*
X0058283Y0009780D01*
X0063283Y0009780D01*
X0065783Y0012280D01*
X0068283Y0009780D01*
X0073283Y0009780D01*
X0075783Y0012280D01*
X0078283Y0009780D01*
X0083283Y0009780D01*
X0085783Y0012280D01*
X0088283Y0009780D01*
X0093283Y0009780D01*
X0095783Y0012280D01*
X0098283Y0009780D01*
X0103283Y0009780D01*
X0105783Y0012280D01*
X0108283Y0009780D01*
X0113283Y0009780D01*
X0115783Y0012280D01*
X0118283Y0009780D01*
X0123283Y0009780D01*
X0125783Y0012280D01*
X0128283Y0009780D01*
X0133283Y0009780D01*
X0135783Y0012280D01*
X0138283Y0009780D01*
X0143283Y0009780D01*
X0145783Y0012280D01*
X0148283Y0009780D01*
X0153283Y0009780D01*
X0155783Y0012280D01*
X0158283Y0009780D01*
X0163283Y0009780D01*
X0165783Y0012280D01*
X0168283Y0009780D01*
X0173283Y0009780D01*
X0175783Y0012280D01*
X0175783Y0017280D01*
X0173283Y0019780D01*
X0168283Y0019780D01*
X0165783Y0017280D01*
X0163283Y0019780D01*
X0158283Y0019780D01*
X0155783Y0017280D01*
X0153283Y0019780D01*
X0148283Y0019780D01*
X0145783Y0017280D01*
X0143283Y0019780D01*
X0138283Y0019780D01*
X0135783Y0017280D01*
X0133283Y0019780D01*
X0128283Y0019780D01*
X0125783Y0017280D01*
X0123283Y0019780D01*
X0118283Y0019780D01*
X0115783Y0017280D01*
X0113283Y0019780D01*
X0108283Y0019780D01*
X0105783Y0017280D01*
X0103283Y0019780D01*
X0098283Y0019780D01*
X0095783Y0017280D01*
X0093283Y0019780D01*
D13*
X0114208Y0040961D02*
X0114208Y0063598D01*
X0172476Y0063598D01*
X0172476Y0040961D01*
X0114208Y0040961D01*
X0116964Y0043717D02*
X0116964Y0055213D01*
X0169720Y0055213D01*
X0169720Y0043717D01*
X0116964Y0043717D01*
X0116964Y0055213D02*
X0116964Y0060843D01*
X0169720Y0060843D01*
X0169720Y0055213D01*
X0066177Y0063598D02*
X0066177Y0040961D01*
X0017752Y0040961D01*
X0017752Y0063598D01*
X0066177Y0063598D01*
X0063460Y0060843D02*
X0063460Y0055213D01*
X0020468Y0055213D01*
X0020468Y0060843D01*
X0063460Y0060843D01*
X0063460Y0055213D02*
X0063460Y0043717D01*
X0020468Y0043717D01*
X0020468Y0055213D01*
X0012296Y0017175D02*
X0012296Y0012671D01*
X0013797Y0012671D02*
X0010794Y0012671D01*
X0008442Y0013422D02*
X0008442Y0017175D01*
X0007692Y0017175D02*
X0009193Y0017175D01*
X0010794Y0015674D02*
X0012296Y0017175D01*
X0008442Y0013422D02*
X0007692Y0012671D01*
X0006941Y0012671D01*
X0006191Y0013422D01*
D14*
X0007816Y0050649D02*
X0008583Y0050649D01*
X0009350Y0051416D01*
X0009350Y0055253D01*
X0008583Y0055253D02*
X0010118Y0055253D01*
X0011652Y0054485D02*
X0012420Y0055253D01*
X0013954Y0055253D01*
X0014722Y0054485D01*
X0014722Y0053718D01*
X0011652Y0050649D01*
X0014722Y0050649D01*
X0007816Y0050649D02*
X0007048Y0051416D01*
X0174371Y0052400D02*
X0175139Y0051633D01*
X0175906Y0051633D01*
X0176673Y0052400D01*
X0176673Y0056237D01*
X0175906Y0056237D02*
X0177441Y0056237D01*
X0178975Y0055470D02*
X0179743Y0056237D01*
X0181277Y0056237D01*
X0182044Y0055470D01*
X0182044Y0054702D01*
X0181277Y0053935D01*
X0182044Y0053168D01*
X0182044Y0052400D01*
X0181277Y0051633D01*
X0179743Y0051633D01*
X0178975Y0052400D01*
X0180510Y0053935D02*
X0181277Y0053935D01*
M02*
