%
M48
M72
T01C0.0394
T02C0.0400
%
T01
X2720Y5021
X3704Y5021
X4689Y5021
X5673Y5021
X12366Y5021
X13350Y5021
X14334Y5021
X15318Y5021
X16303Y5021
T02
X17078Y1478
X16078Y1478
X15078Y1478
X14078Y1478
X13078Y1478
X12078Y1478
X11078Y1478
X10078Y1478
X9078Y1478
X8078Y1478
X7078Y1478
X6078Y1478
X5078Y1478
X4078Y1478
X3078Y1478
X2078Y1478
M30
