G75*
%MOIN*%
%OFA0B0*%
%FSLAX25Y25*%
%IPPOS*%
%LPD*%
%AMOC8*
5,1,8,0,0,1.08239X$1,22.5*
%
%ADD10C,0.00000*%
%ADD11C,0.06000*%
%ADD12R,0.05937X0.05937*%
%ADD13C,0.05937*%
%ADD14R,0.05906X0.05118*%
%ADD15R,0.05118X0.05906*%
%ADD16R,0.05512X0.03937*%
%ADD17C,0.04000*%
D10*
X0001610Y0001000D02*
X0190586Y0001000D01*
X0190586Y0073835D01*
X0001610Y0073835D01*
X0001610Y0001000D01*
D11*
X0020783Y0011780D02*
X0020783Y0017780D01*
X0030783Y0017780D02*
X0030783Y0011780D01*
X0040783Y0011780D02*
X0040783Y0017780D01*
X0050783Y0017780D02*
X0050783Y0011780D01*
X0060783Y0011780D02*
X0060783Y0017780D01*
X0070783Y0017780D02*
X0070783Y0011780D01*
X0080783Y0011780D02*
X0080783Y0017780D01*
X0090783Y0017780D02*
X0090783Y0011780D01*
X0100783Y0011780D02*
X0100783Y0017780D01*
X0110783Y0017780D02*
X0110783Y0011780D01*
X0120783Y0011780D02*
X0120783Y0017780D01*
X0130783Y0017780D02*
X0130783Y0011780D01*
X0140783Y0011780D02*
X0140783Y0017780D01*
X0150783Y0017780D02*
X0150783Y0011780D01*
X0160783Y0011780D02*
X0160783Y0017780D01*
X0170783Y0017780D02*
X0170783Y0011780D01*
D12*
X0163027Y0050213D03*
X0056728Y0050213D03*
D13*
X0046885Y0050213D03*
X0037043Y0050213D03*
X0027200Y0050213D03*
X0123657Y0050213D03*
X0133500Y0050213D03*
X0143342Y0050213D03*
X0153185Y0050213D03*
D14*
X0031137Y0031315D03*
X0021295Y0031315D03*
X0013421Y0034661D03*
X0013421Y0042142D03*
X0021295Y0023835D03*
X0031137Y0023835D03*
D15*
X0044130Y0033480D03*
X0051610Y0033480D03*
X0061846Y0033480D03*
X0069326Y0033480D03*
D16*
X0087830Y0037417D03*
X0096492Y0033677D03*
X0096492Y0041157D03*
D17*
X0097082Y0041354D02*
X0101019Y0041354D01*
X0101019Y0058087D01*
X0101019Y0059071D02*
X0101019Y0042339D01*
X0088224Y0037417D02*
X0081334Y0037417D01*
X0081334Y0050213D01*
X0056728Y0050213D01*
X0046885Y0050213D02*
X0046885Y0058087D01*
X0037043Y0059071D02*
X0101019Y0059071D01*
X0143342Y0050213D02*
X0143342Y0036433D01*
X0120704Y0036433D01*
X0120704Y0012811D01*
X0130547Y0013795D02*
X0130547Y0030528D01*
X0153185Y0030528D01*
X0153185Y0050213D01*
X0162043Y0050213D02*
X0163027Y0050213D01*
X0163027Y0024622D01*
X0141374Y0024622D01*
X0141374Y0014780D01*
X0101019Y0013795D02*
X0101019Y0033480D01*
X0097082Y0033480D01*
X0070507Y0033480D02*
X0070507Y0041354D01*
X0027200Y0041354D01*
X0027200Y0050213D01*
X0037043Y0050213D02*
X0037043Y0059071D01*
X0013421Y0059071D01*
X0013421Y0043323D01*
X0012437Y0033480D02*
X0030153Y0033480D01*
X0029169Y0033480D02*
X0042948Y0033480D01*
X0052791Y0033480D02*
X0052791Y0024622D01*
X0040980Y0024622D01*
X0040980Y0014780D01*
X0031137Y0014780D02*
X0031137Y0022654D01*
X0021295Y0023638D02*
X0020311Y0023638D01*
X0020311Y0014780D01*
X0052791Y0033480D02*
X0060665Y0033480D01*
M02*
